<?xml version="1.0" standalone="no"?><!DOCTYPE svg PUBLIC "-//W3C//DTD SVG 1.1//EN" "http://www.w3.org/Graphics/SVG/1.1/DTD/svg11.dtd"><svg t="1587748946963" class="icon" viewBox="0 0 1024 1024" version="1.1" xmlns="http://www.w3.org/2000/svg" p-id="2780" xmlns:xlink="http://www.w3.org/1999/xlink" width="200" height="200"><defs><style type="text/css"></style></defs><path d="M512.836041 931.491073a71.730695 71.730695 0 0 1-53.982472-24.490787l-376.269689-429.79986c-19.507286-22.288632-22.852474-54.604642-8.29492-80.401168 0-0.008186 0.017396-0.008186 0.017396-0.017396L226.046293 128.049375c12.356422-21.914102 35.68678-35.541471 60.860112-35.541471h449.759448c25.190729 0 48.521087 13.636578 60.893882 35.584449l152.166655 270.02083c14.523785 25.770943 11.195993 58.043974-8.242732 80.316234L566.81749 906.974703a71.720462 71.720462 0 0 1-53.981449 24.51637z m-1.297552-70.52831c0.460488-0.008186 2.679016-0.033769 2.645246 0l374.648773-428.52789-152.166655-270.02083H286.906405L135.183865 431.137321l376.287086 429.825442h0.067538z m-376.37202-429.808046v-0.008186 0.008186z" fill="#444444" p-id="2781"></path><path d="M721.685673 398.34752H302.253952v-52.429093c0-19.303648 15.648398-34.95307 34.95307-34.95307h349.526605c19.303648 0 34.95307 15.648398 34.953069 34.95307v52.429093z" fill="#00D8A0" p-id="2782"></path></svg>