<?xml version="1.0" standalone="no"?><!DOCTYPE svg PUBLIC "-//W3C//DTD SVG 1.1//EN" "http://www.w3.org/Graphics/SVG/1.1/DTD/svg11.dtd"><svg t="1587745165244" class="icon" viewBox="0 0 1024 1024" version="1.1" xmlns="http://www.w3.org/2000/svg" p-id="1526" xmlns:xlink="http://www.w3.org/1999/xlink" width="200" height="200"><defs><style type="text/css"></style></defs><path d="M715.47871 690.374194l-31.710968-31.710968v-429.419355c0-26.425806-21.140645-47.566452-47.566452-47.566452H413.563871c-26.425806 0-47.566452 21.140645-47.566452 47.566452v429.419355l-31.710967 31.710968h381.192258m0 47.566451H333.625806c-19.15871 0-36.335484-11.891613-44.263225-29.729032-7.267097-17.837419-3.303226-38.317419 10.570322-52.190968l17.83742-17.837419v-409.6c0-52.851613 42.941935-95.132903 95.132903-95.132903h222.637419c52.851613 0 95.132903 42.941935 95.132903 95.132903v409.6l17.83742 17.837419c13.873548 13.873548 17.837419 34.353548 10.570322 52.190968s-24.443871 29.729032-43.60258 29.729032z" p-id="1527"></path><path d="M469.058065 356.087742h-21.801291l17.176774 13.873548c0-2.642581 0 0.660645 4.624517-13.873548h-21.801291l17.176774 13.873548c3.963871-5.285161 60.779355-60.779355 61.44-60.779355L508.696774 292.665806l-17.176774 17.176775 63.421935 63.421935c9.249032 9.249032 24.443871 9.249032 33.692904 0 9.249032-9.249032 9.249032-24.443871 0-33.692903l-63.421936-63.421936c-9.249032-9.249032-23.783226-9.249032-33.692903 0 0 0-15.855484 15.194839-31.710968 31.050323l-21.80129 21.80129-7.927742 7.927742c-1.32129 1.32129-1.981935 1.981935-2.642581 3.303226-0.660645 3.963871-1.981935-4.624516-5.945806 16.516129 0 13.212903 10.570323 23.783226 23.783226 23.783226 13.212903-0.660645 23.783226-11.230968 23.783226-24.443871z" p-id="1528"></path><path d="M484.913548 308.52129v254.348387c0 13.212903 10.570323 23.783226 23.783226 23.783226s23.783226-10.570323 23.783226-23.783226V308.52129c0-13.212903-10.570323-23.783226-23.783226-23.783225s-23.783226 10.570323-23.783226 23.783225" p-id="1529"></path><path d="M743.225806 459.809032h35.674839c13.212903 0 23.783226 10.570323 23.783226 23.783226v333.625807c0 13.212903-10.570323 23.783226-23.783226 23.783225H254.348387c-13.212903 0-23.783226-10.570323-23.783226-23.783225V483.592258c0-13.212903 10.570323-23.783226 23.783226-23.783226h33.692903v-47.566451h-33.692903c-39.63871 0-71.349677 31.710968-71.349677 71.349677v333.625807c0 39.63871 31.710968 71.349677 71.349677 71.349677h524.552258c39.63871 0 71.349677-31.710968 71.349678-71.349677V483.592258c0-39.63871-31.710968-71.349677-71.349678-71.349677h-35.674839v47.566451z" p-id="1530"></path></svg>