<?xml version="1.0" standalone="no"?><!DOCTYPE svg PUBLIC "-//W3C//DTD SVG 1.1//EN" "http://www.w3.org/Graphics/SVG/1.1/DTD/svg11.dtd"><svg t="1587745126711" class="icon" viewBox="0 0 1024 1024" version="1.1" xmlns="http://www.w3.org/2000/svg" p-id="13183" xmlns:xlink="http://www.w3.org/1999/xlink" width="200" height="200"><defs><style type="text/css"></style></defs><path d="M842.24 623.36v217.6H183.04V581.12h64L154.88 460.8 64 581.12h65.28v288c0 15.36 11.52 26.88 26.88 26.88h712.96c14.08 0 26.88-12.8 26.88-26.88V624.64l-26.88 35.84-26.88-37.12zM896 460.8V323.84c0-6.4-2.56-12.8-7.68-17.92l-25.6-26.88 25.6-26.88c5.12-5.12 7.68-11.52 7.68-17.92v-76.8c0-16.64-12.8-29.44-26.88-29.44H156.16c-15.36 0-26.88 11.52-26.88 26.88v76.8c0 7.68 2.56 14.08 7.68 19.2l26.88 26.88-26.88 26.88c-5.12 5.12-7.68 11.52-7.68 19.2v93.44l26.88-34.56 26.88 35.84v-83.2l38.4-37.12c5.12-5.12 7.68-11.52 7.68-19.2s-2.56-14.08-7.68-19.2l-38.4-37.12v-39.68h659.2v39.68l-34.56 38.4c-8.96 10.24-8.96 26.88 0 37.12l34.56 37.12V460.8h-64l90.88 120.32L960 460.8h-64z" p-id="13184"></path><path d="M730.88 304.64c15.36 0 26.88-11.52 26.88-26.88s-11.52-26.88-26.88-26.88H293.12c-15.36 0-26.88 11.52-26.88 26.88s11.52 26.88 26.88 26.88h437.76z" p-id="13185"></path><path d="M474.88 540.16c-3.84 7.68-12.8 20.48-20.48 29.44h42.24v35.84H285.44v-35.84h40.96c-7.68-10.24-17.92-23.04-23.04-28.16l20.48-15.36h-28.16v-35.84h74.24v-14.08h-47.36v-11.52c-8.96 5.12-19.2 10.24-29.44 14.08l-17.92-37.12c47.36-16.64 75.52-34.56 94.72-57.6H409.6c20.48 24.32 49.92 42.24 94.72 57.6l-16.64 35.84c-10.24-3.84-20.48-7.68-30.72-14.08v11.52H409.6v14.08h74.24V524.8h-29.44l20.48 15.36z m-136.96-12.8c7.68 7.68 16.64 19.2 23.04 28.16l-16.64 15.36h25.6v-43.52h-32z m21.76-83.2h60.16c-11.52-7.68-20.48-15.36-29.44-24.32-7.68 7.68-17.92 15.36-30.72 24.32z m51.2 83.2v43.52h26.88l-20.48-12.8c6.4-6.4 15.36-19.2 23.04-29.44h-29.44zM559.36 448v33.28c0 62.72-7.68 101.12-17.92 130.56l-35.84-10.24c12.8-38.4 19.2-69.12 19.2-126.72v-83.2h195.84V448H559.36z m3.84-30.72v8.96h120.32v-8.96H563.2z m160 119.04v49.92c0 17.92-7.68 24.32-29.44 26.88l-12.8 1.28-6.4-16.64-10.24 2.56c0-2.56-1.28-5.12-1.28-7.68-14.08 1.28-40.96 3.84-57.6 5.12l-2.56-26.88c5.12-1.28 12.8 0 21.76-1.28v-12.8h-25.6v55.04h-34.56v-75.52h60.16v-8.96h-56.32v-46.08h56.32v-5.12l-56.32 1.28-1.28-23.04c46.08 0 110.08-1.28 147.2-2.56L716.8 473.6c-16.64 1.28-37.12 0-57.6 1.28v6.4h53.76v46.08h-53.76v8.96h64z m-98.56-28.16v-7.68h-20.48v7.68h20.48z m64 48.64h-39.68v12.8h8.96c-1.28-3.84-1.28-7.68-2.56-8.96l15.36-2.56c1.28 2.56 3.84 15.36 7.68 25.6 6.4-1.28 8.96-2.56 8.96-8.96v-17.92z m-29.44-56.32v7.68h20.48v-7.68h-20.48z" p-id="13186"></path><path d="M336.64 704c10.24 12.8 23.04 23.04 38.4 32l-6.4 10.24c-15.36-10.24-28.16-21.76-37.12-34.56v38.4h-10.24v-38.4c-8.96 12.8-20.48 21.76-37.12 34.56l-6.4-10.24c17.92-10.24 30.72-20.48 39.68-32H281.6v-10.24h38.4V678.4h-32v-10.24H320V652.8h10.24v14.08h32v11.52h-32v15.36h38.4v10.24h-32zM486.4 752.64c-19.2-3.84-34.56-7.68-46.08-12.8-11.52 5.12-25.6 10.24-44.8 14.08l-2.56-11.52c15.36-2.56 26.88-6.4 37.12-10.24-5.12-3.84-11.52-8.96-15.36-15.36l3.84-3.84H409.6V704h64v8.96c-6.4 7.68-12.8 14.08-21.76 19.2 10.24 3.84 23.04 6.4 38.4 8.96l-3.84 11.52z m-79.36-46.08H396.8v-23.04h16.64c-2.56-3.84-5.12-10.24-6.4-12.8l5.12-2.56h-10.24l-1.28-8.96c20.48 0 58.88-2.56 78.08-5.12l2.56 10.24c-3.84 0-6.4 0-10.24 1.28l6.4 2.56c-2.56 5.12-6.4 10.24-8.96 15.36h16.64v23.04h-8.96v-12.8h-67.84v12.8z m10.24-37.12c2.56 3.84 5.12 8.96 7.68 11.52l-5.12 2.56h20.48c-2.56-3.84-5.12-11.52-7.68-14.08l5.12-2.56-20.48 2.56z m6.4 43.52c3.84 5.12 8.96 10.24 16.64 14.08 7.68-3.84 12.8-8.96 17.92-14.08h-34.56z m33.28-30.72c2.56-3.84 6.4-11.52 10.24-16.64l-24.32 1.28 6.4 12.8-5.12 3.84h15.36l-2.56-1.28zM528.64 704c-5.12-5.12-15.36-12.8-20.48-16.64l5.12-8.96c5.12 3.84 15.36 10.24 21.76 15.36l-6.4 10.24zM512 746.24c3.84-7.68 12.8-28.16 14.08-35.84l10.24 3.84c-2.56 7.68-11.52 29.44-15.36 37.12l-8.96-5.12z m21.76-67.84c-5.12-5.12-14.08-11.52-19.2-15.36l5.12-8.96c5.12 3.84 15.36 10.24 19.2 14.08l-5.12 10.24z m25.6 16.64l-2.56 11.52h37.12c0 5.12-1.28 24.32-2.56 28.16-1.28 11.52-6.4 14.08-19.2 15.36l-11.52 1.28-3.84-10.24 11.52-1.28c7.68 0 10.24-1.28 10.24-7.68 1.28-3.84 1.28-10.24 1.28-14.08h-38.4l3.84-21.76H537.6v-10.24h66.56v10.24h-44.8z m37.12-24.32h-52.48v-10.24h52.48v10.24zM715.52 750.08c-17.92-6.4-29.44-14.08-38.4-21.76v24.32H665.6v-24.32c-8.96 8.96-21.76 15.36-39.68 21.76l-3.84-10.24c17.92-6.4 29.44-11.52 38.4-17.92h-34.56v-10.24H665.6v-10.24h10.24v10.24h38.4v10.24h-34.56c10.24 7.68 23.04 14.08 39.68 19.2l-3.84 8.96z m-74.24-62.72c-3.84-2.56-14.08-8.96-17.92-10.24l3.84-8.96c3.84 1.28 14.08 7.68 17.92 10.24l-3.84 8.96z m-16.64 12.8c7.68-5.12 17.92-11.52 23.04-16.64l5.12 7.68c-5.12 5.12-14.08 11.52-23.04 16.64l-5.12-7.68z m25.6-26.88c-5.12-3.84-14.08-8.96-17.92-11.52l3.84-7.68c3.84 2.56 14.08 7.68 17.92 10.24l-3.84 8.96z m-2.56 23.04c12.8-6.4 16.64-11.52 19.2-20.48h-11.52V665.6h12.8v-12.8h10.24v11.52h21.76V691.2c0 2.56 1.28 2.56 2.56 2.56h1.28c2.56 0 2.56-1.28 3.84-2.56 0-2.56 1.28-6.4 1.28-10.24l8.96 2.56c0 3.84 0 7.68-1.28 10.24-1.28 6.4-3.84 8.96-11.52 8.96h-6.4c-7.68 0-10.24-2.56-10.24-10.24v-16.64h-11.52c-2.56 14.08-8.96 21.76-23.04 29.44l-6.4-8.96z" p-id="13187"></path></svg>