<?xml version="1.0" standalone="no"?><!DOCTYPE svg PUBLIC "-//W3C//DTD SVG 1.1//EN" "http://www.w3.org/Graphics/SVG/1.1/DTD/svg11.dtd"><svg t="1587745158540" class="icon" viewBox="0 0 1024 1024" version="1.1" xmlns="http://www.w3.org/2000/svg" p-id="1265" xmlns:xlink="http://www.w3.org/1999/xlink" width="200" height="200"><defs><style type="text/css"></style></defs><path d="M438.668387 245.099355l6.606452 23.783226c92.490323 0 166.482581 74.652903 167.143226 167.143225 0 92.490323-74.652903 166.482581-167.143226 167.143226-92.490323 0-166.482581-74.652903-167.143226-167.143226 0-92.490323 74.652903-166.482581 167.143226-167.143225l6.606451-23.783226-6.606451-23.783226c-118.916129 0-214.709677 95.793548-214.709678 214.709677 0 118.255484 95.793548 214.709677 214.709678 214.709678C563.530323 650.735484 659.984516 554.941935 659.984516 436.025806c0-118.255484-95.793548-214.709677-214.709677-214.709677v23.783226h-6.606452z" p-id="1266"></path><path d="M571.458065 595.901935l190.926451 190.926452c9.249032 9.249032 24.443871 9.249032 33.692903 0 9.249032-9.249032 9.249032-24.443871 0-33.692903L605.150968 562.209032c-9.249032-9.249032-24.443871-9.249032-33.692903 0-9.249032 9.249032-9.249032 24.443871 0 33.692903" p-id="1267"></path></svg>