<?xml version="1.0" standalone="no"?><!DOCTYPE svg PUBLIC "-//W3C//DTD SVG 1.1//EN" "http://www.w3.org/Graphics/SVG/1.1/DTD/svg11.dtd"><svg t="1587745169338" class="icon" viewBox="0 0 1024 1024" version="1.1" xmlns="http://www.w3.org/2000/svg" p-id="1658" xmlns:xlink="http://www.w3.org/1999/xlink" width="200" height="200"><defs><style type="text/css"></style></defs><path d="M522.570323 710.193548H169.125161c-13.873548 0-25.104516-11.230968-25.104516-25.104516V227.261935c0-13.873548 11.230968-25.104516 25.104516-25.104516h661.305807c13.873548 0 25.104516 11.230968 25.104516 25.104516v230.565162c0 13.873548 11.230968 25.104516 25.104516 25.104516 13.873548 0 25.104516-11.230968 25.104516-25.104516V227.261935c0-42.28129-34.353548-75.974194-75.974193-76.634838H169.785806c-42.28129 0-75.974194 34.353548-75.974193 76.634838v457.827097c0 42.28129 34.353548 75.974194 75.974193 75.974194h353.445162c13.873548 0 25.104516-11.230968 25.104516-25.104516 0-14.534194-11.230968-25.765161-25.765161-25.765162z" p-id="1659"></path><path d="M381.192258 283.416774l6.606452 25.104516c23.122581 0 42.28129 19.15871 42.28129 42.281291 0 23.122581-19.15871 42.28129-42.28129 42.28129-23.122581 0-42.28129-19.15871-42.281291-42.28129 0-23.122581 19.15871-42.28129 42.281291-42.281291l6.606451-25.104516-6.606451-25.104516c-51.530323 0-93.150968 41.620645-93.150968 93.150968s41.620645 93.150968 93.150968 93.150968S480.949677 402.993548 480.949677 351.463226s-41.620645-93.150968-93.150967-93.150968v25.104516h-6.606452z" p-id="1660"></path><path d="M268.882581 645.450323c0-59.458065 50.209032-109.006452 112.309677-109.006452 62.76129 0 112.309677 49.548387 112.970323 109.006452 0 13.873548 11.230968 25.104516 25.104516 25.104516 13.873548 0 25.104516-11.230968 25.104516-25.104516 0-88.526452-73.992258-159.876129-163.84-159.876129C292.005161 486.234839 218.012903 556.923871 218.012903 645.450323c0 13.873548 11.230968 25.104516 25.104516 25.104516 14.534194 0.660645 25.765161-11.230968 25.765162-25.104516z" p-id="1661"></path><path d="M610.436129 337.589677h186.301936c13.873548 0 25.104516-11.230968 25.104516-25.104516 0-13.873548-11.230968-25.104516-25.104516-25.104516H610.436129c-13.873548 0-25.765161 11.230968-25.765161 25.104516 0 13.212903 11.891613 25.104516 25.765161 25.104516" p-id="1662"></path><path d="M610.436129 473.021935h101.739355c13.873548 0 25.104516-11.230968 25.104516-25.104516 0-13.873548-11.230968-25.104516-25.104516-25.104516H610.436129c-13.873548 0-25.765161 11.230968-25.765161 25.104516 0 13.873548 11.891613 25.104516 25.765161 25.104516" p-id="1663"></path><path d="M847.607742 701.605161h-25.765161c0 2.642581-0.660645 5.285161-1.321291 9.909678-1.981935 10.570323 3.303226 21.140645 12.552258 26.425806l33.032258 19.15871-12.552258 21.80129 21.801291 12.552258 12.552258-21.80129-52.851613-30.389678c-9.909677-5.945806-22.461935-3.963871-31.050323 3.963871-5.285161 5.285161-11.891613 9.909677-18.498064 12.552259l-15.194839 23.12258v32.371613-27.086452c0-11.891613-8.588387-22.461935-20.48-25.104516-9.249032-1.981935-17.837419-5.945806-25.765161-12.552258-7.927742-6.606452-19.819355-7.927742-29.068387-2.64258l-20.48 11.891613-12.552258-21.801291-21.801291 12.552258 12.552258 21.801291 40.299355-23.122581c9.909677-5.945806 15.194839-17.837419 11.891613-29.068387-1.32129-5.945806-2.642581-11.230968-2.642581-15.855484s0.660645-9.909677 2.642581-15.855484c3.303226-11.230968-1.981935-23.122581-11.891613-29.068387l-18.498064-10.570323 12.552258-21.80129-21.801291-12.552258L654.03871 634.219355l42.941935 24.443871c9.249032 5.285161 20.48 4.624516 29.068387-2.642581 7.927742-6.606452 16.516129-10.570323 25.765162-12.552258 11.891613-2.642581 20.48-12.552258 20.48-25.104516v-27.086452 32.371613l15.194838 23.122581c7.267097 3.303226 13.212903 7.267097 18.498065 12.552258 7.927742 7.927742 20.48 9.909677 31.050322 3.963871l31.050323-17.837419-33.032258 19.158709c-9.249032 5.285161-13.873548 15.855484-12.552258 26.425807 0.660645 3.963871 1.32129 7.267097 1.32129 9.909677h48.887742c0-7.267097-0.660645-13.212903-1.981935-17.837419l-25.104517 3.963871 12.552259 21.80129 55.494193-31.710968c5.945806-3.303226 9.909677-9.249032 11.891613-15.194838 1.981935-6.606452 0.660645-13.212903-2.642581-19.15871l-25.104516-44.263226c-7.267097-11.891613-22.461935-16.516129-35.014193-9.249032l-52.851613 30.389677 12.552258 21.801291 17.837419-17.83742c-9.909677-9.909677-21.80129-17.837419-34.353548-23.783226l-9.909678 23.122581h25.104516v-58.136774c0-6.606452-2.642581-13.212903-7.267096-17.837419-4.624516-4.624516-11.230968-7.267097-17.83742-7.267097h-50.869677c-6.606452 0-13.212903 2.642581-17.837419 7.267097-4.624516 4.624516-7.267097 11.230968-7.267097 17.837419v52.851613h25.104516l-5.285161-25.104516c-18.498065 3.963871-34.353548 12.552258-47.566452 23.12258l15.855484 19.819355 12.552258-21.80129-42.941936-24.443871c-11.891613-7.267097-27.747097-2.642581-35.014193 9.249032l-25.104516 44.263226c-3.303226 5.945806-3.963871 12.552258-2.642581 19.15871 1.981935 6.606452 5.945806 11.891613 11.891613 15.194838l40.299355 23.122581 12.552258-21.80129-24.443871-6.606452c-2.642581 8.588387-4.624516 18.498065-4.624516 29.068387 0 11.230968 1.981935 20.48 4.624516 29.068387l24.443871-6.606451-12.552258-21.801291-40.299355 23.122581c-5.945806 3.303226-9.909677 9.249032-11.891613 15.194839-1.981935 6.606452-0.660645 13.212903 2.642581 19.158709l25.104516 44.263226c7.267097 11.891613 22.461935 16.516129 35.014193 9.249032l42.941936-24.443871-12.552258-21.80129-15.855484 19.819355c13.212903 10.570323 29.068387 19.15871 47.566452 23.122581l5.285161-25.104517H720.103226v52.851613c0 6.606452 2.642581 13.212903 7.267097 17.83742 4.624516 4.624516 11.230968 7.267097 17.837419 7.267096h50.869677c6.606452 0 13.212903-2.642581 17.83742-7.267096 4.624516-4.624516 7.267097-11.230968 7.267096-17.83742V779.56129h-25.104516l9.909678 23.122581c13.212903-5.945806 24.443871-13.873548 34.353548-23.783226l-17.837419-17.837419-12.552258 21.80129 52.851613 30.389678c5.945806 3.303226 12.552258 3.963871 19.158709 2.64258 6.606452-1.981935 11.891613-5.945806 15.194839-11.891613l25.104516-44.263226c3.303226-5.945806 3.963871-12.552258 2.642581-19.158709-1.981935-6.606452-5.945806-11.891613-11.891613-15.194839L858.83871 693.677419l-12.552258 21.801291 25.104516 3.963871c0.660645-4.624516 1.981935-11.230968 1.981935-17.83742h-25.765161z" p-id="1664"></path></svg>