<?xml version="1.0" standalone="no"?><!DOCTYPE svg PUBLIC "-//W3C//DTD SVG 1.1//EN" "http://www.w3.org/Graphics/SVG/1.1/DTD/svg11.dtd"><svg t="1587745172967" class="icon" viewBox="0 0 1024 1024" version="1.1" xmlns="http://www.w3.org/2000/svg" p-id="1792" xmlns:xlink="http://www.w3.org/1999/xlink" width="200" height="200"><defs><style type="text/css"></style></defs><path d="M587.313548 201.496774h142.03871c13.873548 0 25.104516 11.230968 25.104516 25.104516v210.085162h50.869678V226.60129c0-42.28129-34.353548-75.974194-76.634839-76.634838H586.652903v51.530322h0.660645z m-50.869677 559.566452H271.525161c-13.873548 0-25.104516-11.230968-25.104516-25.104516v-508.696775c0-13.873548 11.230968-25.104516 25.104516-25.104516h154.590968v-50.869677H271.525161c-42.28129 0-75.974194 34.353548-75.974193 76.634839v508.696774c0 42.28129 34.353548 75.974194 75.974193 76.634839h264.91871v-52.190968z" p-id="1793"></path><path d="M356.087742 404.975484h169.785806c13.873548 0 25.104516-11.230968 25.104517-25.104516 0-13.873548-11.230968-25.104516-25.104517-25.104516H356.087742c-13.873548 0-25.104516 11.230968-25.104516 25.104516 0 13.873548 11.230968 25.104516 25.104516 25.104516" p-id="1794"></path><path d="M356.087742 540.407742h169.785806c13.873548 0 25.104516-11.230968 25.104517-25.104516s-11.230968-25.104516-25.104517-25.104516H356.087742c-13.873548 0-25.104516 11.230968-25.104516 25.104516s11.230968 25.104516 25.104516 25.104516" p-id="1795"></path><path d="M424.134194 125.522581v25.104516h126.843871v50.869677H449.23871V125.522581h-25.104516v25.104516V125.522581h-25.765162v126.843871h203.47871V99.757419H398.369032V125.522581h25.765162z" p-id="1796"></path><path d="M627.612903 803.344516v25.765161H856.196129v33.692904H652.717419v-59.458065H627.612903v25.765161-25.765161h-25.765161v110.327742h305.218064v-135.432258H601.847742v25.104516H627.612903z" p-id="1797"></path><path d="M747.850323 532.48l6.606451 25.104516c18.498065 0 33.692903 15.194839 33.692903 33.692903s-15.194839 33.692903-33.692903 33.692904-33.692903-15.194839-33.692903-33.692904 15.194839-33.692903 33.692903-33.692903l6.606452-25.104516-6.606452-25.104516c-46.905806 0-84.562581 37.656774-84.56258 84.562581 0 46.905806 37.656774 84.562581 84.56258 84.56258 46.905806 0 84.562581-37.656774 84.562581-84.56258 0-46.905806-37.656774-84.562581-84.562581-84.562581v25.104516h-6.606451z" p-id="1798"></path><path d="M704.908387 625.630968L654.03871 778.24l48.227096 16.516129 50.869678-152.609032" p-id="1799"></path><path d="M755.778065 642.147097l50.869677 152.609032 48.227097-16.516129-50.869678-152.609032" p-id="1800"></path></svg>