<?xml version="1.0" standalone="no"?><!DOCTYPE svg PUBLIC "-//W3C//DTD SVG 1.1//EN" "http://www.w3.org/Graphics/SVG/1.1/DTD/svg11.dtd"><svg t="1587745175479" class="icon" viewBox="0 0 1024 1024" version="1.1" xmlns="http://www.w3.org/2000/svg" p-id="1928" xmlns:xlink="http://www.w3.org/1999/xlink" width="200" height="200"><defs><style type="text/css"></style></defs><path d="M539.747097 870.069677v-85.223225l36.996129-10.570323c21.140645-5.945806 41.620645-15.194839 61.44-27.086452l34.353548-21.140645 28.407742 28.407742 33.692903 33.692903 0.660646 0.660646 48.227096-48.227097-0.660645-0.660645-38.317419-38.31742-25.765162-26.425806 16.51613-33.032258c9.249032-18.498065 15.855484-37.656774 20.48-56.815484l9.249032-39.63871H865.445161V477.646452h-105.703226l-11.891612-34.353549c-5.945806-16.516129-13.212903-32.371613-22.461936-46.905806l-21.140645-34.353549 28.407742-28.407742 50.209032-50.209032 0.660645-0.660645-48.227096-48.227097-0.660646 0.660645-55.494193 55.494194-25.765161 25.765161-33.032259-16.516129c-13.873548-7.267097-28.407742-12.552258-42.941935-17.176774l-36.996129-10.570323V154.590968v-1.321291H471.04v118.916129l-36.996129 10.570323c-14.534194 3.963871-29.068387 9.909677-42.941936 17.176774l-33.032258 16.516129-25.765161-25.765161-55.494193-55.494194-0.660646-0.660645-48.227096 48.227097 0.660645 0.660645 50.209032 50.209032 28.407742 28.407742-20.48 34.353549c-9.249032 14.534194-16.516129 30.389677-22.461935 46.905806l-11.891613 34.353549h-105.703226v68.046451h100.418064l9.249033 39.63871c4.624516 19.819355 11.230968 38.978065 20.48 56.815484l16.516129 33.032258-25.765162 26.425806-38.317419 38.31742-0.660645 0.660645 48.227097 48.227097 0.660645-0.660646 33.692903-33.692903 28.407742-28.407742 34.353548 21.140645c19.15871 11.891613 40.299355 21.140645 61.44 27.086452l36.996129 10.570323V870.069677h67.385807m4.624516 51.530323H466.415484c-25.765161 0-46.245161-23.122581-46.245161-52.190968v-45.584516c-26.425806-7.267097-50.869677-18.498065-73.331613-32.371613l-33.692904 33.692903c-11.230968 11.230968-25.104516 16.516129-38.317419 16.516129-11.891613 0-23.122581-3.963871-31.050322-12.552258l-54.833549-54.833548c-18.498065-18.498065-16.516129-49.548387 3.963871-70.028387l38.317419-38.317419c-10.570323-21.80129-19.15871-44.263226-24.443871-68.707097h-58.136774c-29.068387 0-52.190968-21.140645-52.190967-46.245161V473.021935c0-25.765161 23.122581-46.245161 52.190967-46.245161h68.046452c7.267097-19.819355 15.855484-38.978065 27.086452-56.815484l-50.209033-50.209032c-20.48-20.48-22.461935-51.530323-3.963871-70.028387l54.833549-54.833548c8.588387-8.588387 19.819355-12.552258 31.050322-12.552258 13.212903 0 27.747097 5.285161 38.31742 16.516129l55.494193 55.494193c16.516129-7.927742 33.692903-15.194839 51.530323-20.48v-79.277419c0-29.068387 21.140645-52.190968 46.245161-52.190968h77.295484c25.765161 0 46.245161 23.122581 46.245161 52.190968v79.277419c17.837419 5.285161 35.014194 11.891613 51.530323 20.48l55.494193-55.494193c11.230968-11.230968 25.104516-16.516129 38.31742-16.516129 11.891613 0 23.122581 3.963871 31.050322 12.552258l54.833549 54.833548c18.498065 18.498065 16.516129 49.548387-3.963871 70.028387l-50.209033 50.209032c10.570323 17.837419 19.819355 36.335484 27.086452 56.815484h68.046452c29.068387 0 52.190968 21.140645 52.190967 46.245161v77.295484c0 25.765161-23.122581 46.245161-52.190967 46.245162h-58.136775c-5.285161 23.783226-13.873548 46.905806-24.443871 68.707096l38.31742 38.31742c20.48 20.48 22.461935 51.530323 3.963871 70.028387l-54.833549 54.833548c-8.588387 8.588387-19.819355 12.552258-31.050322 12.552258-13.212903 0-27.747097-5.285161-38.31742-16.516129l-33.692903-33.692903c-23.122581 13.873548-47.566452 25.104516-73.331613 32.371613v45.584516c-0.660645 29.729032-21.140645 52.851613-46.905806 52.851613z" p-id="1929"></path><path d="M505.393548 614.4c46.905806 0 85.223226-38.317419 85.223226-85.223226 0-46.905806-38.317419-85.223226-85.223226-85.223226-46.905806 0-85.223226 38.317419-85.223225 85.223226 0 46.905806 38.317419 85.223226 85.223225 85.223226m0 50.869677c-75.313548 0-136.753548-61.44-136.753548-136.753548 0-75.313548 61.44-136.753548 136.753548-136.753548 75.313548 0 136.753548 61.44 136.753549 136.753548 0 75.974194-61.44 136.753548-136.753549 136.753548z" p-id="1930"></path></svg>