<?xml version="1.0" standalone="no"?><!DOCTYPE svg PUBLIC "-//W3C//DTD SVG 1.1//EN" "http://www.w3.org/Graphics/SVG/1.1/DTD/svg11.dtd"><svg t="1587745154427" class="icon" viewBox="0 0 1024 1024" version="1.1" xmlns="http://www.w3.org/2000/svg" p-id="1134" xmlns:xlink="http://www.w3.org/1999/xlink" width="200" height="200"><defs><style type="text/css"></style></defs><path d="M524.552258 848.929032c184.32 0 333.625806-149.966452 333.625807-333.625806s-149.966452-333.625806-333.625807-333.625807c-184.32 0-333.625806 149.966452-333.625806 333.625807s149.305806 333.625806 333.625806 333.625806m0 48.227097c-210.745806 0-381.852903-171.107097-381.852903-381.852903s171.107097-381.852903 381.852903-381.852903 381.192258 171.107097 381.192258 381.852903-170.446452 381.852903-381.192258 381.852903z" p-id="1135"></path><path d="M524.552258 467.736774c35.014194 0 63.421935-28.407742 63.421936-63.421935s-28.407742-63.421935-63.421936-63.421936-63.421935 28.407742-63.421935 63.421936 28.407742 63.421935 63.421935 63.421935m0 47.566452c-61.44 0-110.988387-49.548387-110.988387-110.988387s49.548387-110.988387 110.988387-110.988387 110.988387 49.548387 110.988387 110.988387S585.992258 515.303226 524.552258 515.303226z" p-id="1136"></path><path d="M652.056774 658.663226v-47.566452H397.708387v47.566452h254.348387m0 47.566451H397.708387c-26.425806 0-47.566452-21.140645-47.566452-47.566451v-47.566452c0-26.425806 21.140645-47.566452 47.566452-47.566451h254.348387c26.425806 0 47.566452 21.140645 47.566452 47.566451v47.566452c0 25.765161-21.80129 47.566452-47.566452 47.566451z" p-id="1137"></path></svg>